<?xml version="1.0" encoding="UTF-8"?>
<svg xmlns="http://www.w3.org/2000/svg" viewBox="0 0 204.85 174.45">
  <defs>
    <style>
      .cls-1 {
        fill: #424adf;
      }

      .cls-1, .cls-2 {
        stroke: #424adf;
        stroke-miterlimit: 10;
      }

      .cls-2 {
        fill: none;
        stroke-width: 5px;
      }
    </style>
  </defs>
  <g id="Calque_2" data-name="Calque 2">
    <path class="cls-2" d="M23.98,168.14l15.78-4.55v-67.15s-33.64,0-33.64,0L100.82,3.48s7.5-3.25,12.35,2.11,12.39,12.24,12.39,12.24c0,0,1.87,1.06,4.35-.56s10.16-6.17,14.51-6.17,12.54-.1,12.54-.1c0,0,5.26,2.38,5.66,10.77s0,16.9,0,16.9c0,0,.64,9.84,3.67,14.56s6.34,12,15.78,19.89,14.9,11.87,18.27,16.38,1.89,6.54,0,6.67-20.83.07-20.83.07c0,0-6.88,2.22-6.88,8.63s.07,58.58.07,58.58l16.52,3.44.13,5.06H23.98v-3.81Z"/>
  </g>
  <g id="Calque_3" data-name="Calque 3">
    <path class="cls-1" d="M69.86,99.24v-8.93s5.02-7.65,9.88-7.72,6.94-.17,6.94-.17c0,0,9.71,5.12,10.38,8.09s-.07,9.88-1.01,10.31-7.75-4.25-9.67-5.76-7.04-.47-7.55-.17-6.13,4.28-7.55,4.31l-1.42.03Z"/>
    <path class="cls-1" d="M113.16,99.24v-8.93s5.02-7.65,9.88-7.72,6.94-.17,6.94-.17c0,0,9.71,5.12,10.38,8.09s-.07,9.88-1.01,10.31-7.75-4.25-9.67-5.76-7.04-.47-7.55-.17-6.13,4.28-7.55,4.31l-1.42.03Z"/>
  </g>
  <g id="Calque_4" data-name="Calque 4">
    <path class="cls-1" d="M79.65,117.98s10.11,8.6,14.16,9.51,6.88.3,12.59-.86,19.47-3.99,21.34-4.7,3.69,1.31,1.11,5.11-8.85,12.54-16.38,12.79-14.06.4-14.06.4c0,0-10.97-2.33-15.07-9.46"/>
  </g>
</svg>